<mxfile host="65bd71144e">
    <diagram id="s0A77DTjOOB_HSaQDPje" name="第 1 页">
        <mxGraphModel dx="702" dy="299" grid="1" gridSize="10" guides="1" tooltips="1" connect="1" arrows="1" fold="1" page="1" pageScale="1" pageWidth="1600" pageHeight="1200" math="0" shadow="0">
            <root>
                <mxCell id="0"/>
                <mxCell id="1" parent="0"/>
                <mxCell id="19" value="" style="ellipse;whiteSpace=wrap;html=1;fillColor=#FFDEDE;" vertex="1" parent="1">
                    <mxGeometry x="381" y="62" width="100" height="40" as="geometry"/>
                </mxCell>
                <mxCell id="18" value="" style="ellipse;whiteSpace=wrap;html=1;fillColor=#FFDEDE;" vertex="1" parent="1">
                    <mxGeometry x="271" y="62" width="100" height="40" as="geometry"/>
                </mxCell>
                <mxCell id="15" value="" style="ellipse;whiteSpace=wrap;html=1;fillColor=#FFDEDE;" vertex="1" parent="1">
                    <mxGeometry x="160" y="62" width="100" height="40" as="geometry"/>
                </mxCell>
                <mxCell id="2" value="" style="shape=flexArrow;endArrow=classic;html=1;startArrow=none;" edge="1" parent="1" source="13">
                    <mxGeometry width="50" height="50" relative="1" as="geometry">
                        <mxPoint x="61" y="82" as="sourcePoint"/>
                        <mxPoint x="641" y="82" as="targetPoint"/>
                    </mxGeometry>
                </mxCell>
                <mxCell id="5" value="" style="shape=flexArrow;endArrow=none;html=1;" edge="1" parent="1" target="4">
                    <mxGeometry width="50" height="50" relative="1" as="geometry">
                        <mxPoint x="61" y="82" as="sourcePoint"/>
                        <mxPoint x="641" y="82" as="targetPoint"/>
                    </mxGeometry>
                </mxCell>
                <mxCell id="4" value="" style="ellipse;whiteSpace=wrap;html=1;aspect=fixed;fillColor=#FFFF00;" vertex="1" parent="1">
                    <mxGeometry x="91" y="72" width="20" height="20" as="geometry"/>
                </mxCell>
                <mxCell id="7" value="" style="shape=flexArrow;endArrow=none;html=1;startArrow=none;" edge="1" parent="1" source="4" target="6">
                    <mxGeometry width="50" height="50" relative="1" as="geometry">
                        <mxPoint x="111" y="82" as="sourcePoint"/>
                        <mxPoint x="641" y="82" as="targetPoint"/>
                    </mxGeometry>
                </mxCell>
                <mxCell id="6" value="" style="ellipse;whiteSpace=wrap;html=1;aspect=fixed;fillColor=#FFFF00;" vertex="1" parent="1">
                    <mxGeometry x="201" y="72" width="20" height="20" as="geometry"/>
                </mxCell>
                <mxCell id="10" value="" style="shape=flexArrow;endArrow=none;html=1;startArrow=none;" edge="1" parent="1" source="6" target="8">
                    <mxGeometry width="50" height="50" relative="1" as="geometry">
                        <mxPoint x="221" y="82" as="sourcePoint"/>
                        <mxPoint x="641" y="82" as="targetPoint"/>
                    </mxGeometry>
                </mxCell>
                <mxCell id="8" value="" style="ellipse;whiteSpace=wrap;html=1;aspect=fixed;fillColor=#FFFF00;" vertex="1" parent="1">
                    <mxGeometry x="311" y="72" width="20" height="20" as="geometry"/>
                </mxCell>
                <mxCell id="12" value="" style="shape=flexArrow;endArrow=none;html=1;startArrow=none;" edge="1" parent="1" source="8" target="11">
                    <mxGeometry width="50" height="50" relative="1" as="geometry">
                        <mxPoint x="331" y="82" as="sourcePoint"/>
                        <mxPoint x="641" y="82" as="targetPoint"/>
                    </mxGeometry>
                </mxCell>
                <mxCell id="11" value="" style="ellipse;whiteSpace=wrap;html=1;aspect=fixed;fillColor=#FFFF00;" vertex="1" parent="1">
                    <mxGeometry x="421" y="72" width="20" height="20" as="geometry"/>
                </mxCell>
                <mxCell id="14" value="" style="shape=flexArrow;endArrow=none;html=1;startArrow=none;" edge="1" parent="1" source="11" target="13">
                    <mxGeometry width="50" height="50" relative="1" as="geometry">
                        <mxPoint x="441" y="82" as="sourcePoint"/>
                        <mxPoint x="641" y="82" as="targetPoint"/>
                    </mxGeometry>
                </mxCell>
                <mxCell id="13" value="" style="ellipse;whiteSpace=wrap;html=1;aspect=fixed;fillColor=#FFFF00;" vertex="1" parent="1">
                    <mxGeometry x="531" y="72" width="20" height="20" as="geometry"/>
                </mxCell>
                <mxCell id="23" value="&lt;font style=&quot;font-size: 18px;&quot;&gt;Stratified Sample&lt;/font&gt;" style="text;strokeColor=none;fillColor=none;html=1;fontSize=24;fontStyle=1;verticalAlign=middle;align=center;fontFamily=Helvetica;fontColor=default;" vertex="1" parent="1">
                    <mxGeometry x="290" y="120" width="100" height="40" as="geometry"/>
                </mxCell>
                <mxCell id="24" value="&lt;font style=&quot;font-size: 14px;&quot;&gt;perturb&lt;/font&gt;" style="text;html=1;strokeColor=none;fillColor=none;align=center;verticalAlign=middle;whiteSpace=wrap;rounded=0;fontFamily=Helvetica;fontSize=18;fontColor=default;" vertex="1" parent="1">
                    <mxGeometry x="130" y="37" width="60" height="30" as="geometry"/>
                </mxCell>
                <mxCell id="25" value="near" style="text;html=1;strokeColor=none;fillColor=none;align=center;verticalAlign=middle;whiteSpace=wrap;rounded=0;fontFamily=Helvetica;fontSize=14;fontColor=default;" vertex="1" parent="1">
                    <mxGeometry x="71" y="92" width="60" height="30" as="geometry"/>
                </mxCell>
                <mxCell id="26" value="far" style="text;html=1;strokeColor=none;fillColor=none;align=center;verticalAlign=middle;whiteSpace=wrap;rounded=0;fontFamily=Helvetica;fontSize=14;fontColor=default;" vertex="1" parent="1">
                    <mxGeometry x="511" y="90" width="60" height="30" as="geometry"/>
                </mxCell>
                <mxCell id="27" value="light" style="text;html=1;strokeColor=none;fillColor=none;align=center;verticalAlign=middle;whiteSpace=wrap;rounded=0;fontFamily=Helvetica;fontSize=14;fontColor=default;" vertex="1" parent="1">
                    <mxGeometry x="620" y="32" width="60" height="30" as="geometry"/>
                </mxCell>
            </root>
        </mxGraphModel>
    </diagram>
</mxfile>